<svg class="border shadow-md" viewBox="0 0 901.12 506.88" style="width: 901.12px; height: 506.88px;" xmlns="http://www.w3.org/2000/svg" preserveAspectRatio="none"><rect class="bg" id="bg" x="0" y="0" width="901.12" height="506.88" fill="#39988A"/><g transform="rotate(0 450.56 253.44)"><path id="-1" d="M -367.04 -12.24 S -193.52 -33.36&#10;            0.00 -12.24 173.52 -33.36&#10;            367.04 -12.24 540.56 -33.36&#10;            734.08 -12.24 907.60 -33.36&#10;            1101.12 -12.24 1092.16 -49.24&#10;            1468.16 -12.24 h 110 V 706.88 H -367.04 Z" fill="#53A37F"/><path id="0" d="M -367.04 30.00 S -193.52 -2.00&#10;            0.00 30.00 173.52 -8.00&#10;            367.04 30.00 540.56 8.88&#10;            734.08 30.00 906.12 8.88&#10;            1101.12 30.00 1236.16 8.88&#10;            1468.16 30.00 h 110 V 706.88 H -367.04 Z" fill="#5da887"/><path id="1" d="M -367.04 72.24 S -193.52 39.24&#10;            0.00 72.24 173.52 51.12&#10;            367.04 72.24 540.56 38.24&#10;            734.08 72.24 809.12 36.24&#10;            1101.12 72.24 1274.64 51.12&#10;            1468.16 72.24 h 110 V 706.88 H -367.04 Z" fill="#67ad8f"/><path id="2" d="M -367.04 114.48 S -205.00 75.48&#10;            0.00 114.48 173.52 80.48&#10;            367.04 114.48 383.08 93.36&#10;            734.08 114.48 876.12 83.48&#10;            1101.12 114.48 1213.16 84.48&#10;            1468.16 114.48 h 110 V 706.88 H -367.04 Z" fill="#71b297"/><path id="3" d="M -367.04 156.72 S -327.00 135.60&#10;            0.00 156.72 173.52 116.72&#10;            367.04 156.72 540.56 127.72&#10;            734.08 156.72 888.12 122.72&#10;            1101.12 156.72 1274.64 125.72&#10;            1468.16 156.72 h 110 V 706.88 H -367.04 Z" fill="#7bb79f"/><path id="4" d="M -367.04 198.96 S -193.52 165.96&#10;            0.00 198.96 173.52 177.84&#10;            367.04 198.96 540.56 177.84&#10;            734.08 198.96 815.12 177.84&#10;            1101.12 198.96 1230.16 177.84&#10;            1468.16 198.96 h 110 V 706.88 H -367.04 Z" fill="#85bca7"/><path id="5" d="M -367.04 241.20 S -310.00 218.20&#10;            0.00 241.20 51.04 207.20&#10;            367.04 241.20 540.56 220.08&#10;            734.08 241.20 837.12 210.20&#10;            1101.12 241.20 1274.64 220.08&#10;            1468.16 241.20 h 110 V 706.88 H -367.04 Z" fill="#8fc1af"/><path id="6" d="M -367.04 283.44 S -193.52 262.32&#10;            0.00 283.44 173.52 261.44&#10;            367.04 283.44 540.56 247.44&#10;            734.08 283.44 858.12 262.32&#10;            1101.12 283.44 1274.64 251.44&#10;            1468.16 283.44 h 110 V 706.88 H -367.04 Z" fill="#99c6b7"/><path id="7" d="M -367.04 325.68 S -193.52 303.68&#10;            0.00 325.68 145.04 284.68&#10;            367.04 325.68 540.56 304.56&#10;            734.08 325.68 886.12 297.68&#10;            1101.12 325.68 1274.64 284.68&#10;            1468.16 325.68 h 110 V 706.88 H -367.04 Z" fill="#a3cbbf"/><path id="8" d="M -367.04 367.92 S -193.52 339.92&#10;            0.00 367.92 173.52 346.80&#10;            367.04 367.92 540.56 346.80&#10;            734.08 367.92 907.60 346.80&#10;            1101.12 367.92 1170.16 346.80&#10;            1468.16 367.92 h 110 V 706.88 H -367.04 Z" fill="#add0c7"/><path id="9" d="M -367.04 410.16 S -346.00 389.04&#10;            0.00 410.16 173.52 389.04&#10;            367.04 410.16 540.56 389.04&#10;            734.08 410.16 727.12 388.16&#10;            1101.12 410.16 1210.16 378.16&#10;            1468.16 410.16 h 110 V 706.88 H -367.04 Z" fill="#b7d5cf"/><path id="10" d="M -367.04 452.40 S -193.52 429.40&#10;            0.00 452.40 124.04 425.40&#10;            367.04 452.40 389.08 431.28&#10;            734.08 452.40 763.12 420.40&#10;            1101.12 452.40 1167.16 415.40&#10;            1468.16 452.40 h 110 V 706.88 H -367.04 Z" fill="#c1dad7"/><path id="11" d="M -367.04 494.64 S -193.52 472.64&#10;            0.00 494.64 152.04 473.52&#10;            367.04 494.64 540.56 466.64&#10;            734.08 494.64 907.60 473.52&#10;            1101.12 494.64 1251.16 453.64&#10;            1468.16 494.64 h 110 V 706.88 H -367.04 Z" fill="#cbdfdf"/></g></svg>